<svg width="20" height="20" viewBox="0 0 20 20" fill="none" xmlns="http://www.w3.org/2000/svg">
<path d="M5.41667 1.66666H14.5833C14.7127 1.66666 14.8403 1.69678 14.956 1.75463C15.0717 1.81249 15.1724 1.89649 15.25 1.99999L17.5 4.99999V17.5C17.5 17.721 17.4122 17.933 17.2559 18.0892C17.0996 18.2455 16.8877 18.3333 16.6667 18.3333H3.33333C3.11232 18.3333 2.90036 18.2455 2.74408 18.0892C2.5878 17.933 2.5 17.721 2.5 17.5V4.99999L4.75 1.99999C4.82762 1.89649 4.92828 1.81249 5.04399 1.75463C5.1597 1.69678 5.2873 1.66666 5.41667 1.66666ZM15.4167 4.99999L14.1667 3.33332H5.83333L4.58333 4.99999H15.4167ZM7.5 8.33332H5.83333V9.99999C5.83333 11.1051 6.27232 12.1649 7.05372 12.9463C7.83512 13.7277 8.89493 14.1667 10 14.1667C11.1051 14.1667 12.1649 13.7277 12.9463 12.9463C13.7277 12.1649 14.1667 11.1051 14.1667 9.99999V8.33332H12.5V9.99999C12.5 10.663 12.2366 11.2989 11.7678 11.7678C11.2989 12.2366 10.663 12.5 10 12.5C9.33696 12.5 8.70107 12.2366 8.23223 11.7678C7.76339 11.2989 7.5 10.663 7.5 9.99999V8.33332Z" fill="white"/>
</svg>
