<svg width="40" height="36" viewBox="0 0 40 36" fill="none" xmlns="http://www.w3.org/2000/svg">
<g opacity="0.3">
<path d="M25.1417 23C25.3138 22.512 25.6331 22.0895 26.0555 21.7906C26.4779 21.4918 26.9826 21.3313 27.5 21.3313C28.0174 21.3313 28.5221 21.4918 28.9445 21.7906C29.3669 22.0895 29.6862 22.512 29.8583 23H38.3333V24.6667H29.8583C29.6862 25.1546 29.3669 25.5771 28.9445 25.876C28.5221 26.1749 28.0174 26.3354 27.5 26.3354C26.9826 26.3354 26.4779 26.1749 26.0555 25.876C25.6331 25.5771 25.3138 25.1546 25.1417 24.6667H21.6667V23H25.1417ZM30.1417 17.1667C30.3138 16.6787 30.6331 16.2562 31.0555 15.9573C31.4779 15.6584 31.9826 15.4979 32.5 15.4979C33.0174 15.4979 33.5221 15.6584 33.9445 15.9573C34.3669 16.2562 34.6862 16.6787 34.8583 17.1667H38.3333V18.8333H34.8583C34.6862 19.3213 34.3669 19.7438 33.9445 20.0427C33.5221 20.3415 33.0174 20.502 32.5 20.502C31.9826 20.502 31.4779 20.3415 31.0555 20.0427C30.6331 19.7438 30.3138 19.3213 30.1417 18.8333H21.6667V17.1667H30.1417ZM25.1417 11.3333C25.3138 10.8454 25.6331 10.4228 26.0555 10.124C26.4779 9.82511 26.9826 9.66461 27.5 9.66461C28.0174 9.66461 28.5221 9.82511 28.9445 10.124C29.3669 10.4228 29.6862 10.8454 29.8583 11.3333H38.3333V13H29.8583C29.6862 13.4879 29.3669 13.9105 28.9445 14.2093C28.5221 14.5082 28.0174 14.6687 27.5 14.6687C26.9826 14.6687 26.4779 14.5082 26.0555 14.2093C25.6331 13.9105 25.3138 13.4879 25.1417 13H21.6667V11.3333H25.1417Z" fill="#2E3456"/>
</g>
<line opacity="0.12" x1="0.5" y1="-2.18557e-08" x2="0.500002" y2="36" stroke="#2E3456"/>
</svg>
