<svg width="20" height="20" viewBox="0 0 20 20" fill="none" xmlns="http://www.w3.org/2000/svg">
<g opacity="0.3">
<path d="M9.16667 1.66666C13.3067 1.66666 16.6667 5.02666 16.6667 9.16666C16.6667 13.3067 13.3067 16.6667 9.16667 16.6667C5.02667 16.6667 1.66667 13.3067 1.66667 9.16666C1.66667 5.02666 5.02667 1.66666 9.16667 1.66666ZM9.16667 15C12.3892 15 15 12.3892 15 9.16666C15 5.94332 12.3892 3.33332 9.16667 3.33332C5.94333 3.33332 3.33333 5.94332 3.33333 9.16666C3.33333 12.3892 5.94333 15 9.16667 15ZM16.2375 15.0592L18.595 17.4158L17.4158 18.595L15.0592 16.2375L16.2375 15.0592Z" fill="#2E3456"/>
</g>
</svg>
