<svg width="20" height="20" viewBox="0 0 20 20" fill="none" xmlns="http://www.w3.org/2000/svg">
<path d="M5.31834 4.97334C6.64646 3.90923 8.29817 3.33063 10 3.33334C11.7708 3.33334 13.3983 3.94668 14.6817 4.97334L15.8925 3.76251L17.0708 4.94084L15.86 6.15168C16.7414 7.25513 17.2934 8.58503 17.4523 9.98833C17.6113 11.3916 17.3708 12.8113 16.7586 14.084C16.1463 15.3566 15.1872 16.4306 13.9915 17.1822C12.7959 17.9338 11.4123 18.3325 10 18.3325C8.58773 18.3325 7.20415 17.9338 6.0085 17.1822C4.81284 16.4306 3.85369 15.3566 3.24144 14.084C2.62918 12.8113 2.3887 11.3916 2.54767 9.98833C2.70663 8.58503 3.25858 7.25513 4.14 6.15168L2.92917 4.94168L4.1075 3.76334L5.31834 4.97418V4.97334ZM10.8333 10V6.24584L6.66667 11.6667H9.16667V15.4167L13.3333 10H10.8333ZM6.66667 0.833344H13.3333V2.50001H6.66667V0.833344Z" fill="#F26110"/>
</svg>
